<svg width="29" height="29" viewBox="0 0 29 29" fill="none" xmlns="http://www.w3.org/2000/svg">
<path d="M14.5 15.75C14.8542 15.75 15.1513 15.63 15.3913 15.39C15.6304 15.1508 15.75 14.8542 15.75 14.5V9.46875C15.75 9.11458 15.6304 8.82292 15.3913 8.59375C15.1513 8.36458 14.8542 8.25 14.5 8.25C14.1458 8.25 13.8492 8.36958 13.61 8.60875C13.37 8.84875 13.25 9.14583 13.25 9.5V14.5312C13.25 14.8854 13.37 15.1771 13.61 15.4062C13.8492 15.6354 14.1458 15.75 14.5 15.75ZM14.5 20.75C14.8542 20.75 15.1513 20.63 15.3913 20.39C15.6304 20.1508 15.75 19.8542 15.75 19.5C15.75 19.1458 15.6304 18.8487 15.3913 18.6087C15.1513 18.3696 14.8542 18.25 14.5 18.25C14.1458 18.25 13.8492 18.3696 13.61 18.6087C13.37 18.8487 13.25 19.1458 13.25 19.5C13.25 19.8542 13.37 20.1508 13.61 20.39C13.8492 20.63 14.1458 20.75 14.5 20.75ZM14.5 27C12.7708 27 11.1458 26.6717 9.625 26.015C8.10417 25.3592 6.78125 24.4688 5.65625 23.3438C4.53125 22.2188 3.64083 20.8958 2.985 19.375C2.32833 17.8542 2 16.2292 2 14.5C2 12.7708 2.32833 11.1458 2.985 9.625C3.64083 8.10417 4.53125 6.78125 5.65625 5.65625C6.78125 4.53125 8.10417 3.64042 9.625 2.98375C11.1458 2.32792 12.7708 2 14.5 2C16.2292 2 17.8542 2.32792 19.375 2.98375C20.8958 3.64042 22.2188 4.53125 23.3438 5.65625C24.4688 6.78125 25.3592 8.10417 26.015 9.625C26.6717 11.1458 27 12.7708 27 14.5C27 16.2292 26.6717 17.8542 26.015 19.375C25.3592 20.8958 24.4688 22.2188 23.3438 23.3438C22.2188 24.4688 20.8958 25.3592 19.375 26.015C17.8542 26.6717 16.2292 27 14.5 27Z" fill="#FCFAF9"/>
</svg>
