<svg width="29" height="29" viewBox="0 0 29 29" fill="none" xmlns="http://www.w3.org/2000/svg">
<path fill-rule="evenodd" clip-rule="evenodd" d="M14.4997 1.20825C7.15905 1.20825 1.20801 7.15929 1.20801 14.4999C1.20801 21.8405 7.15905 27.7916 14.4997 27.7916C21.8403 27.7916 27.7913 21.8405 27.7913 14.4999C27.7913 7.15929 21.8403 1.20825 14.4997 1.20825ZM20.261 12.2524C20.3671 12.1312 20.4479 11.9899 20.4986 11.837C20.5492 11.684 20.5688 11.5225 20.5562 11.3619C20.5435 11.2012 20.4989 11.0448 20.4248 10.9017C20.3508 10.7585 20.2489 10.6317 20.1251 10.5285C20.0014 10.4254 19.8582 10.348 19.7041 10.301C19.55 10.254 19.388 10.2383 19.2277 10.2548C19.0675 10.2713 18.9121 10.3197 18.7708 10.3972C18.6295 10.4746 18.5052 10.5795 18.405 10.7058L13.2092 16.9395L10.5206 14.2498C10.2927 14.0297 9.98751 13.9079 9.67069 13.9106C9.35387 13.9134 9.0508 14.0405 8.82677 14.2645C8.60273 14.4885 8.47565 14.7916 8.4729 15.1084C8.47015 15.4253 8.59194 15.7305 8.81205 15.9584L12.437 19.5834C12.5558 19.702 12.6979 19.7946 12.8544 19.8553C13.0109 19.916 13.1784 19.9434 13.346 19.9358C13.5137 19.9282 13.678 19.8857 13.8283 19.8111C13.9787 19.7365 14.1119 19.6313 14.2193 19.5024L20.261 12.2524Z" fill="#FCFAF9"/>
</svg>
