<svg width="109" height="40" viewBox="0 0 109 40" fill="none" xmlns="http://www.w3.org/2000/svg">
<g clip-path="url(#clip0_20_4582)">
<path d="M1.4069 0.475872L2.85172 1.67932V7.10346H10.6621L11.7241 8.44139L10.6586 9.7138H2.85172V14.9L1.4069 16.1035L0 14.9V1.67932L1.4069 0.475872ZM5.63103 14.1448H11.5862L12.5828 15.4138L11.5207 16.7552H5.63103L4.66897 15.5173L5.63103 14.1448ZM5.83793 0.165527H11.5172L12.5793 1.50346L11.5172 2.77587H5.9069L4.77241 1.54139L5.83793 0.165527ZM37.4897 2.74139L38.7621 4.1138L37.4897 5.48967H18.2586L17.0207 4.1138L18.2586 2.74139H37.4897ZM15.9897 8.44484L17.1897 7.4138L18.3931 8.44484V9.95863C18.3931 12.5 19.0793 14.5931 22.1379 14.5931H22.7552C25.5034 14.5931 27.0138 12.7379 27.0138 9.85173V8.41035L28.1828 7.37932L29.3862 8.37587V9.95518C29.3862 12.531 30.1414 14.4552 33.0966 14.4552H33.6103C36.4966 14.4552 37.0103 12.2552 37.0448 9.85173V8.30691L38.2138 7.34484L39.4483 8.34139V9.88622C39.4138 13.2173 38.5207 17.031 33.7138 17.031H33.2C30.3483 17.031 28.8034 15.7586 28.1862 14.1793C27.4655 15.7931 25.5414 17.2035 22.931 17.2035H22.3103C17.3655 17.2035 16.0276 14.2173 15.9931 10.0241V8.44484H15.9897ZM25.8138 33.3069L25.1276 31.4517L26.9138 30.9379L33.2 33.7862V27.9138L34.4724 26.8483L35.7759 27.9138V35.0241L38.1103 36.0897L38.7621 37.8069L36.9414 38.4586L25.8138 33.3069ZM37.0103 20.769L38.7276 21.5586L38.1793 23.3104L22.7207 30.4897L20.8655 29.769L21.6207 27.9828L37.0103 20.769ZM14.7069 30.5586L16.2172 31.7966C16.0793 36.1586 12.3345 38.4586 7.9069 38.4586H7.45862C5.25862 38.4586 2.68621 37.6345 1.03793 36.0552L1.21034 34.3035L2.82414 34.0966C4.02759 35.1276 5.71034 35.8483 7.28966 35.8483H7.77241C10.7621 35.8483 13.0621 34.6138 13.3034 31.6931L14.7069 30.5586ZM13.2966 27.7069C13.1586 24.6828 10.8931 23.4828 7.76552 23.4828H7.28276C5.42759 23.4828 4.02069 24.2035 2.81724 25.2345L1.20345 25.0276L1.03103 23.2759C2.67931 21.6621 4.97931 20.9069 7.38621 20.9069H7.86552C12.331 20.9069 16.0759 23.1759 16.2103 27.6035L14.7 28.8069L13.2966 27.7069Z" fill="#1B1F21"/>
<path d="M53.8047 4.993H50.2944C50.3737 5.67576 50.8495 6.17921 51.5495 6.17921C51.9737 6.17921 52.3702 6.01024 52.5978 5.66542L53.7151 5.69645C53.3185 6.57576 52.4978 7.04128 51.5495 7.04128C50.2254 7.04128 49.2461 6.05162 49.2461 4.68955C49.2461 3.32404 50.2047 2.34473 51.522 2.34473C52.7185 2.34473 53.8047 3.14473 53.8047 4.98611V4.993ZM50.2944 4.27231H52.6978C52.6495 3.6999 52.184 3.20335 51.5323 3.20335C50.8668 3.20335 50.4116 3.63783 50.2944 4.27231Z" fill="#1B1F21"/>
<path d="M57.2352 3.66886C56.8973 3.34128 56.4042 3.18611 56.0697 3.18611C55.6835 3.18611 55.4869 3.393 55.4869 3.5999C55.4869 3.84817 55.5973 3.96542 55.9007 4.07576L56.6731 4.34128C57.5042 4.62749 57.849 5.08266 57.849 5.63783C57.849 6.35162 57.3042 7.04128 56.1869 7.04128C55.4559 7.04128 54.7318 6.74473 54.3076 6.33783L54.8904 5.57576C55.2283 5.91024 55.749 6.15852 56.1662 6.15852C56.5628 6.15852 56.818 5.98955 56.818 5.72404C56.818 5.43783 56.68 5.32059 56.1835 5.15162L55.4421 4.893C54.818 4.67576 54.4731 4.21024 54.4731 3.65852C54.4731 3.0068 55.0352 2.34473 56.1042 2.34473C56.6283 2.34473 57.3318 2.55162 57.7938 2.98611L57.2352 3.66886Z" fill="#1B1F21"/>
<path d="M60.842 6.17924C61.3558 6.17924 61.7524 5.93096 61.9799 5.52752L62.8317 5.962C62.4765 6.62407 61.6937 7.04131 60.8455 7.04131C59.5213 7.04131 58.4834 6.062 58.4834 4.69648C58.4834 3.32062 59.5213 2.34131 60.8455 2.34131C61.6972 2.34131 62.4765 2.7551 62.8317 3.42062L61.9799 3.8551C61.7524 3.44821 61.3558 3.20338 60.842 3.20338C60.0317 3.20338 59.4765 3.84476 59.4765 4.69648C59.4765 5.54821 60.0317 6.17924 60.842 6.17924Z" fill="#1B1F21"/>
<path d="M63.6387 5.29984V2.46191H64.6283V5.17226C64.6283 5.87571 65.0938 6.1895 65.6766 6.1895C66.2594 6.1895 66.7249 5.87226 66.7249 5.17226V2.46191H67.7042V5.29984C67.7042 6.23778 66.9628 7.04122 65.6766 7.04122C64.3904 7.04122 63.6387 6.23778 63.6387 5.29984Z" fill="#1B1F21"/>
<path d="M73.1426 4.993H69.6323C69.7116 5.67576 70.1874 6.17921 70.8874 6.17921C71.3116 6.17921 71.7081 6.01024 71.9357 5.66542L73.053 5.69645C72.6564 6.57576 71.8357 7.04128 70.8874 7.04128C69.5633 7.04128 68.584 6.05162 68.584 4.68955C68.584 3.32404 69.5426 2.34473 70.8598 2.34473C72.0564 2.34473 73.1426 3.14473 73.1426 4.98611V4.993ZM69.6323 4.27231H72.0357C71.9874 3.6999 71.5219 3.20335 70.8702 3.20335C70.2047 3.20335 69.7495 3.63783 69.6323 4.27231Z" fill="#1B1F21"/>
<path d="M75.0389 6.92069H74.0596V0H75.0389V6.92069Z" fill="#1B1F21"/>
<path d="M78.8457 3.92404C78.8457 3.44817 78.4905 3.20335 77.9147 3.20335C77.4319 3.20335 76.994 3.41024 76.6595 3.67921L76.194 2.94817C76.5698 2.62059 77.2009 2.34473 77.9836 2.34473C79.1595 2.34473 79.8319 2.99645 79.8319 3.94817V6.92404H78.8423V6.45852C78.5836 6.87231 78.0319 7.04128 77.5664 7.04128C76.5492 7.04128 75.9561 6.45852 75.9561 5.63783C75.9561 4.76886 76.5698 4.27231 77.5664 4.27231H78.525C78.7526 4.27231 78.8423 4.17231 78.8423 3.99645V3.92404H78.8457ZM78.8457 5.28955V4.90335C78.7561 4.97231 78.5974 5.00335 78.3698 5.00335H77.7767C77.2526 5.00335 76.9871 5.23093 76.9871 5.6068C76.9871 5.95162 77.2457 6.26886 77.7767 6.26886C78.3319 6.26886 78.8457 5.98266 78.8457 5.28955Z" fill="#1B1F21"/>
<path d="M50.5223 17.3723H49.543V10.4517H50.5223V13.5758C50.7602 13.131 51.3809 12.793 52.0361 12.793C53.3326 12.793 54.2706 13.7724 54.2706 15.1379C54.2706 16.5034 53.3119 17.4896 52.0154 17.4896C51.374 17.4896 50.7706 17.1723 50.5223 16.7275V17.3723ZM50.4912 15.1379C50.4912 15.9896 51.0533 16.6413 51.874 16.6413C52.6843 16.6413 53.2568 15.9896 53.2568 15.1379C53.2568 14.2861 52.6843 13.6448 51.874 13.6448C51.0533 13.6448 50.4912 14.2896 50.4912 15.1379Z" fill="#1B1F21"/>
<path d="M57.7601 13.7827H57.2463C56.6119 13.7827 56.1981 14.1482 56.1981 15.1586V17.3724H55.2188V12.9138H56.1774V13.6275C56.3463 13.1344 56.7912 12.8379 57.4119 12.8379C57.5222 12.8379 57.6394 12.8482 57.7567 12.8689V13.7827H57.7601Z" fill="#1B1F21"/>
<path d="M59.7558 17.3724H58.7662V13.7241H58.0938V12.9138H59.7558V17.3724ZM59.2006 10.6104C59.5869 10.6104 59.9041 10.9276 59.9041 11.3138C59.9041 11.7 59.5869 12.0069 59.2006 12.0069C58.8144 12.0069 58.5075 11.7 58.5075 11.3138C58.5075 10.9276 58.8144 10.6104 59.2006 10.6104Z" fill="#1B1F21"/>
<path d="M62.2558 11.1138V12.9138H63.3041V13.7241H62.2558V16.2241C62.2558 16.531 62.4834 16.5896 62.711 16.5896C63.0558 16.5896 63.3145 16.5483 63.3145 16.5483V17.3689C63.3145 17.3689 62.8283 17.4172 62.4627 17.4172C61.9283 17.4172 61.2662 17.3069 61.2662 16.4379V13.7241H60.5352V12.9138H61.2662V11.1138H62.2558Z" fill="#1B1F21"/>
<path d="M66.7461 14.3792C66.7461 13.9034 66.3909 13.6586 65.8151 13.6586C65.3289 13.6586 64.8944 13.8655 64.5599 14.1344L64.0944 13.4034C64.4702 13.0758 65.1013 12.7999 65.884 12.7999C67.0599 12.7999 67.7323 13.4517 67.7323 14.4034V17.3792H66.7427V16.9137C66.484 17.3275 65.9323 17.4965 65.4668 17.4965C64.4495 17.4965 63.8564 16.9137 63.8564 16.093C63.8564 15.2241 64.4702 14.7275 65.4668 14.7275H66.4254C66.653 14.7275 66.7427 14.6275 66.7427 14.4517V14.3792H66.7461ZM66.7461 15.7413V15.3551C66.6564 15.4241 66.4978 15.4551 66.2702 15.4551H65.6771C65.153 15.4551 64.8875 15.6827 64.8875 16.0586C64.8875 16.4034 65.1461 16.7206 65.6771 16.7206C66.2323 16.7206 66.7461 16.4344 66.7461 15.7413ZM65.6082 10.4517H66.8358L65.984 12.1241H65.0358L65.6082 10.4517Z" fill="#1B1F21"/>
<path d="M69.8912 13.1722C69.8912 13.2998 69.8912 13.3791 69.8809 13.4688C70.2568 13.0343 70.7705 12.7964 71.3361 12.7964C72.3843 12.7964 72.9981 13.4481 72.9981 14.4688V17.3757H72.0085V14.6067C72.0085 13.9722 71.6223 13.6757 71.1292 13.6757C70.705 13.6757 70.2878 13.8929 69.9119 14.3274V17.3722H68.9326V12.9136H69.8912V13.1722Z" fill="#1B1F21"/>
<path d="M75.3769 17.3724H74.3873V13.7241H73.7148V12.9138H75.3769V17.3724ZM74.8217 10.6104C75.2079 10.6104 75.5252 10.9276 75.5252 11.3138C75.5252 11.7 75.2079 12.0069 74.8217 12.0069C74.4355 12.0069 74.1286 11.7 74.1286 11.3138C74.1321 10.9276 74.4355 10.6104 74.8217 10.6104Z" fill="#1B1F21"/>
<path d="M78.6809 16.6309C79.1947 16.6309 79.5912 16.3826 79.8188 15.9792L80.6705 16.4137C80.3154 17.0757 79.5326 17.493 78.6843 17.493C77.3602 17.493 76.3223 16.5137 76.3223 15.1481C76.3223 13.7723 77.3602 12.793 78.6843 12.793C79.5361 12.793 80.3154 13.2068 80.6705 13.8723L79.8188 14.3068C79.5912 13.8999 79.1947 13.655 78.6809 13.655C77.8705 13.655 77.3154 14.2964 77.3154 15.1481C77.3154 15.9999 77.8671 16.6309 78.6809 16.6309Z" fill="#1B1F21"/>
<path d="M84.0772 14.3791C84.0772 13.9033 83.722 13.6584 83.1461 13.6584C82.6634 13.6584 82.2254 13.8653 81.891 14.1343L81.4254 13.4033C81.8013 13.0757 82.4323 12.7998 83.2151 12.7998C84.3909 12.7998 85.0634 13.4515 85.0634 14.4033V17.3791H84.0737V16.9136C83.8151 17.3274 83.2634 17.4964 82.7978 17.4964C81.7806 17.4964 81.1875 16.9136 81.1875 16.0929C81.1875 15.2239 81.8013 14.7274 82.7978 14.7274H83.7565C83.9841 14.7274 84.0737 14.6274 84.0737 14.4515V14.3791H84.0772ZM84.0772 15.7412V15.355C83.9875 15.4239 83.8289 15.455 83.6013 15.455H83.0082C82.4841 15.455 82.2185 15.6826 82.2185 16.0584C82.2185 16.4033 82.4772 16.7205 83.0082 16.7205C83.5634 16.7205 84.0772 16.4343 84.0772 15.7412Z" fill="#1B1F21"/>
<path d="M91.8287 16.7206C91.5908 17.1654 90.9874 17.493 90.3357 17.493C89.0391 17.493 88.0908 16.5034 88.0908 15.1413C88.0908 13.7758 89.0219 12.7965 90.315 12.7965C90.977 12.7965 91.5908 13.1344 91.8391 13.5792C91.8287 13.2723 91.8287 12.9068 91.8287 12.562V10.4551H92.8184V17.3758H91.8287V16.7206ZM89.1012 15.1378C89.1012 15.9896 89.6632 16.6413 90.4839 16.6413C91.2943 16.6413 91.8667 15.9896 91.8667 15.1378C91.8667 14.2861 91.2943 13.6447 90.4839 13.6447C89.6632 13.6447 89.1012 14.2896 89.1012 15.1378Z" fill="#1B1F21"/>
<path d="M98.3252 15.4447H94.8149C94.8942 16.1274 95.3701 16.6309 96.0701 16.6309C96.4942 16.6309 96.8907 16.4619 97.1183 16.1171L98.2356 16.1481C97.839 17.0274 97.0183 17.4929 96.0701 17.4929C94.7459 17.4929 93.7666 16.5033 93.7666 15.1412C93.7666 13.7757 94.7252 12.7964 96.0425 12.7964C97.239 12.7964 98.3252 13.5964 98.3252 15.4378V15.4447ZM94.8149 14.724H97.2183C97.1701 14.1516 96.7045 13.655 96.0528 13.655C95.3873 13.655 94.9321 14.0895 94.8149 14.724Z" fill="#1B1F21"/>
<path d="M52.0733 24.8313C52.0733 24.3554 51.7181 24.1106 51.1422 24.1106C50.656 24.1106 50.2215 24.3175 49.887 24.5864L49.4215 23.8554C49.7974 23.5278 50.4284 23.252 51.2112 23.252C52.387 23.252 53.0595 23.9037 53.0595 24.8554V27.8313H52.0698V27.3657C51.8112 27.7795 51.2595 27.9485 50.7939 27.9485C49.7767 27.9485 49.1836 27.3657 49.1836 26.5451C49.1836 25.6761 49.7974 25.1795 50.7939 25.1795H51.7526C51.9801 25.1795 52.0698 25.0795 52.0698 24.9037V24.8313H52.0733ZM52.0733 26.1933V25.8071C51.9836 25.8761 51.825 25.9071 51.5974 25.9071H51.0043C50.4801 25.9071 50.2146 26.1347 50.2146 26.5106C50.2146 26.8554 50.4732 27.1726 51.0043 27.1726C51.5595 27.1726 52.0733 26.8864 52.0733 26.1933Z" fill="#1B1F21"/>
<path d="M56.7972 24.2378H56.2834C55.649 24.2378 55.2352 24.6033 55.2352 25.6137V27.8275H54.2559V23.3654H55.2145V24.0792C55.3834 23.5861 55.8283 23.2896 56.449 23.2896C56.5593 23.2896 56.6765 23.2999 56.7938 23.3206V24.2378H56.7972Z" fill="#1B1F21"/>
<path d="M58.8662 21.5655V23.3655H59.9145V24.1758H58.8662V26.6758C58.8662 26.9827 59.0938 27.0413 59.3214 27.0413C59.6662 27.0413 59.9248 26.9999 59.9248 26.9999V27.8206C59.9248 27.8206 59.4386 27.8689 59.0731 27.8689C58.5386 27.8689 57.8765 27.7586 57.8765 26.8896V24.1724H57.1455V23.362H57.8765V21.562H58.8662V21.5655Z" fill="#1B1F21"/>
<path d="M65.084 25.8963H61.5737C61.653 26.5791 62.1288 27.0825 62.8288 27.0825C63.253 27.0825 63.6495 26.9136 63.8771 26.5687L64.9944 26.5998C64.5978 27.4791 63.7771 27.9446 62.8288 27.9446C61.5047 27.9446 60.5254 26.9549 60.5254 25.5929C60.5254 24.2274 61.484 23.248 62.8013 23.248C63.9978 23.248 65.084 24.048 65.084 25.8894V25.8963ZM61.5737 25.1756H63.9771C63.9288 24.6032 63.4633 24.1067 62.8116 24.1067C62.1495 24.1067 61.6944 24.5446 61.5737 25.1756Z" fill="#1B1F21"/>
<path d="M68.5145 24.5722C68.1766 24.2446 67.6835 24.0894 67.349 24.0894C66.9628 24.0894 66.7662 24.2963 66.7662 24.5032C66.7662 24.7515 66.8766 24.8687 67.18 24.9791L67.9524 25.2446C68.7835 25.5308 69.1283 25.986 69.1283 26.5412C69.1283 27.2549 68.5835 27.9446 67.4662 27.9446C66.7352 27.9446 66.0111 27.648 65.5869 27.2412L66.1697 26.4791C66.5076 26.8136 67.0283 27.0618 67.4455 27.0618C67.8421 27.0618 68.0973 26.8929 68.0973 26.6274C68.0973 26.3412 67.9593 26.2239 67.4628 26.0549L66.7214 25.7963C66.0973 25.5791 65.7524 25.1136 65.7524 24.5618C65.7524 23.9101 66.3145 23.248 67.3835 23.248C67.9076 23.248 68.6111 23.4549 69.0731 23.8894L68.5145 24.5722Z" fill="#1B1F21"/>
<path d="M73.8528 27.0826C74.3666 27.0826 74.7631 26.8343 74.9907 26.4308L75.8424 26.8653C75.4872 27.5274 74.7045 27.9446 73.8562 27.9446C72.5321 27.9446 71.4941 26.9653 71.4941 25.5998C71.4941 24.2239 72.5321 23.2446 73.8562 23.2446C74.7079 23.2446 75.4872 23.6584 75.8424 24.3239L74.9907 24.7584C74.7631 24.3515 74.3666 24.1067 73.8528 24.1067C73.0424 24.1067 72.4872 24.7481 72.4872 25.5998C72.4907 26.4515 73.0424 27.0826 73.8528 27.0826Z" fill="#1B1F21"/>
<path d="M79.2631 24.2378H78.7493C78.1148 24.2378 77.701 24.6033 77.701 25.6137V27.8275H76.7217V23.3654H77.6803V24.0792C77.8493 23.5861 78.2941 23.2896 78.9148 23.2896C79.0251 23.2896 79.1424 23.2999 79.2596 23.3206V24.2378H79.2631Z" fill="#1B1F21"/>
<path d="M84.2354 25.8963H80.725C80.8043 26.5791 81.2802 27.0825 81.9802 27.0825C82.4043 27.0825 82.8009 26.9136 83.0285 26.5687L84.1457 26.5998C83.7492 27.4791 82.9285 27.9446 81.9802 27.9446C80.6561 27.9446 79.6768 26.9549 79.6768 25.5929C79.6768 24.2274 80.6354 23.248 81.9526 23.248C83.1492 23.248 84.2354 24.048 84.2354 25.8894V25.8963ZM80.725 25.1756H83.1285C83.0802 24.6032 82.6147 24.1067 81.963 24.1067C81.2974 24.1067 80.8457 24.5446 80.725 25.1756Z" fill="#1B1F21"/>
<path d="M87.6563 24.8313C87.6563 24.3554 87.3011 24.1106 86.7252 24.1106C86.2425 24.1106 85.8045 24.3175 85.47 24.5864L85.0045 23.8554C85.3804 23.5278 86.0114 23.252 86.7942 23.252C87.9701 23.252 88.6425 23.9037 88.6425 24.8554V27.8313H87.6528V27.3657C87.3942 27.7795 86.8425 27.9485 86.3769 27.9485C85.3597 27.9485 84.7666 27.3657 84.7666 26.5451C84.7666 25.6761 85.3804 25.1795 86.3769 25.1795H87.3356C87.5632 25.1795 87.6528 25.0795 87.6528 24.9037V24.8313H87.6563ZM87.6563 26.1933V25.8071C87.5666 25.8761 87.408 25.9071 87.1804 25.9071H86.5873C86.0632 25.9071 85.7976 26.1347 85.7976 26.5106C85.7976 26.8554 86.0563 27.1726 86.5873 27.1726C87.1425 27.1726 87.6563 26.8864 87.6563 26.1933Z" fill="#1B1F21"/>
<path d="M91.0976 21.5655V23.3655H92.1459V24.1758H91.0976V26.6758C91.0976 26.9827 91.3252 27.0413 91.5528 27.0413C91.8976 27.0413 92.1563 26.9999 92.1563 26.9999V27.8206C92.1563 27.8206 91.6701 27.8689 91.3045 27.8689C90.7701 27.8689 90.108 27.7586 90.108 26.8896V24.1724H89.377V23.362H90.108V21.562H91.0976V21.5655Z" fill="#1B1F21"/>
<path d="M94.2421 27.8275H93.2525V24.1758H92.5801V23.3655H94.2421V27.8275ZM93.687 21.062C94.0732 21.062 94.3904 21.3793 94.3904 21.7655C94.3904 22.1517 94.0732 22.4586 93.687 22.4586C93.3008 22.4586 92.9939 22.1517 92.9939 21.7655C92.9939 21.3793 93.3008 21.062 93.687 21.062Z" fill="#1B1F21"/>
<path d="M97.2769 26.8864L98.4734 23.3657H99.5217L97.8803 27.8243H96.6355L95.0527 23.3657H96.1493L97.2769 26.8864Z" fill="#1B1F21"/>
<path d="M102.726 24.8313C102.726 24.3554 102.37 24.1106 101.795 24.1106C101.308 24.1106 100.874 24.3175 100.539 24.5864L100.074 23.8554C100.45 23.5278 101.081 23.252 101.864 23.252C103.039 23.252 103.712 23.9037 103.712 24.8554V27.8313H102.722V27.3657C102.464 27.7795 101.912 27.9485 101.446 27.9485C100.429 27.9485 99.8359 27.3657 99.8359 26.5451C99.8359 25.6761 100.45 25.1795 101.446 25.1795H102.405C102.632 25.1795 102.722 25.0795 102.722 24.9037V24.8313H102.726ZM102.726 26.1933V25.8071C102.636 25.8761 102.477 25.9071 102.25 25.9071H101.657C101.132 25.9071 100.867 26.1347 100.867 26.5106C100.867 26.8554 101.126 27.1726 101.657 27.1726C102.212 27.1726 102.726 26.8864 102.726 26.1933Z" fill="#1B1F21"/>
<path d="M107.449 24.5722C107.111 24.2446 106.618 24.0894 106.284 24.0894C105.897 24.0894 105.701 24.2963 105.701 24.5032C105.701 24.7515 105.811 24.8687 106.115 24.9791L106.887 25.2446C107.718 25.5308 108.063 25.986 108.063 26.5412C108.063 27.2549 107.518 27.9446 106.401 27.9446C105.67 27.9446 104.946 27.648 104.521 27.2412L105.104 26.4791C105.442 26.8136 105.963 27.0618 106.38 27.0618C106.777 27.0618 107.032 26.8929 107.032 26.6274C107.032 26.3412 106.894 26.2239 106.397 26.0549L105.656 25.7963C105.032 25.5791 104.687 25.1136 104.687 24.5618C104.687 23.9101 105.249 23.248 106.318 23.248C106.842 23.248 107.546 23.4549 108.008 23.8894L107.449 24.5722Z" fill="#1B1F21"/>
<path d="M50.8873 38.2794H50.6908L49.0977 33.8208H50.2046L51.3218 37.3311L52.4873 33.8208H53.5459L51.6563 39.0036C51.4183 39.6449 51.0425 40.0036 50.2528 40.0036H49.5597V39.1932H50.1046C50.4597 39.1932 50.6287 39.076 50.7563 38.6898L50.8873 38.2794Z" fill="#1B1F21"/>
<path d="M57.4697 32.0205V33.8205H58.518V34.6309H57.4697V37.1309C57.4697 37.4378 57.6973 37.4964 57.9249 37.4964C58.2697 37.4964 58.5283 37.455 58.5283 37.455V38.2757C58.5283 38.2757 58.0421 38.324 57.6766 38.324C57.1421 38.324 56.4801 38.2136 56.4801 37.3447V34.6274H55.749V33.8171H56.4801V32.0171H57.4697V32.0205Z" fill="#1B1F21"/>
<path d="M63.6905 36.3485H60.1801C60.2594 37.0312 60.7353 37.5347 61.4353 37.5347C61.8594 37.5347 62.256 37.3657 62.4836 37.0209L63.6008 37.0519C63.2042 37.9312 62.3836 38.3967 61.4353 38.3967C60.1111 38.3967 59.1318 37.4071 59.1318 36.045C59.1318 34.6795 60.0905 33.7002 61.4077 33.7002C62.6042 33.7002 63.6905 34.5002 63.6905 36.3416V36.3485ZM60.1801 35.6278H62.5836C62.5353 35.0554 62.0698 34.5588 61.418 34.5588C60.7525 34.5588 60.2974 34.9967 60.1801 35.6278Z" fill="#1B1F21"/>
<path d="M66.636 37.5381C67.1498 37.5381 67.5463 37.2898 67.7739 36.8864L68.6256 37.3209C68.2704 37.983 67.4877 38.4002 66.6394 38.4002C65.3153 38.4002 64.2773 37.4209 64.2773 36.0554C64.2773 34.6795 65.3153 33.7002 66.6394 33.7002C67.4911 33.7002 68.2704 34.114 68.6256 34.7795L67.7739 35.214C67.5463 34.8071 67.1498 34.5623 66.636 34.5623C65.8256 34.5623 65.2704 35.2036 65.2704 36.0554C65.2739 36.9036 65.8256 37.5381 66.636 37.5381Z" fill="#1B1F21"/>
<path d="M70.4635 34.0761C70.4635 34.2036 70.4635 34.283 70.4532 34.3726C70.829 33.9381 71.3428 33.7002 71.9083 33.7002C72.9566 33.7002 73.5704 34.3519 73.5704 35.3726V38.2795H72.5807V35.5105C72.5807 34.8761 72.1945 34.5795 71.7014 34.5795C71.2773 34.5795 70.8601 34.7967 70.4842 35.2312V38.2761H69.5049V33.8174H70.4635V34.0761Z" fill="#1B1F21"/>
<path d="M76.8314 33.7002C78.1452 33.7002 79.2142 34.6795 79.2142 36.045C79.2142 37.4105 78.1452 38.3967 76.8314 38.3967C75.5176 38.3967 74.459 37.4071 74.459 36.045C74.4555 34.6795 75.5142 33.7002 76.8314 33.7002ZM76.8314 34.5588C76.0211 34.5588 75.4555 35.1933 75.4555 36.0416C75.4555 36.8933 76.0176 37.5347 76.8314 37.5347C77.6418 37.5347 78.2073 36.8933 78.2073 36.0416C78.2038 35.1933 77.6418 34.5588 76.8314 34.5588Z" fill="#1B1F21"/>
<path d="M81.16 38.2791H80.1807V31.355H81.16V38.2791Z" fill="#1B1F21"/>
<path d="M84.5043 33.7002C85.8181 33.7002 86.887 34.6795 86.887 36.045C86.887 37.4105 85.8181 38.3967 84.5043 38.3967C83.1905 38.3967 82.1318 37.4071 82.1318 36.045C82.1284 34.6795 83.187 33.7002 84.5043 33.7002ZM84.5043 34.5588C83.6939 34.5588 83.1284 35.1933 83.1284 36.0416C83.1284 36.8933 83.6905 37.5347 84.5043 37.5347C85.3146 37.5347 85.8801 36.8933 85.8801 36.0416C85.8767 35.1933 85.3146 34.5588 84.5043 34.5588Z" fill="#1B1F21"/>
<path d="M92.2456 33.8175V38.6313C92.2456 39.3244 91.9007 39.9968 90.8421 39.9968H88.9731V39.1864H90.6938C90.9594 39.1864 91.2559 39.1175 91.2559 38.7106V37.614C91.018 38.0485 90.4145 38.3761 89.7628 38.3761C88.4766 38.3761 87.5283 37.4071 87.5283 36.0416C87.5283 34.6657 88.4594 33.6968 89.7525 33.6968C90.4042 33.6968 91.018 34.0347 91.2662 34.4795C91.2662 34.3795 91.2559 34.2726 91.2559 34.1347V33.8175H92.2456ZM89.9111 37.5382C90.7318 37.5382 91.2938 36.8968 91.2938 36.0451C91.2938 35.183 90.7318 34.5416 89.9111 34.5416C89.1007 34.5416 88.5352 35.183 88.5352 36.0451C88.5352 36.8933 89.1007 37.5382 89.9111 37.5382Z" fill="#1B1F21"/>
<path d="M94.6767 38.2791H93.6974V34.6308H93.0146V33.8205H94.6767V38.2791ZM93.7871 31.355H95.0146L94.1629 33.0274H93.2146L93.7871 31.355Z" fill="#1B1F21"/>
<path d="M98.4531 35.2829C98.4531 34.8071 98.098 34.5622 97.5221 34.5622C97.0359 34.5622 96.6014 34.7691 96.2669 35.0381L95.8014 34.3071C96.1773 33.9795 96.8083 33.7036 97.5911 33.7036C98.7669 33.7036 99.4393 34.3553 99.4393 35.3071V38.2829H98.4497V37.8174C98.1911 38.2312 97.6393 38.4002 97.1738 38.4002C96.1566 38.4002 95.5635 37.8174 95.5635 36.9967C95.5635 36.1278 96.1773 35.6312 97.1738 35.6312H98.1324C98.36 35.6312 98.4497 35.5312 98.4497 35.3553V35.2829H98.4531ZM98.4531 36.6484V36.2622C98.3635 36.3312 98.2049 36.3622 97.9773 36.3622H97.3842C96.86 36.3622 96.5945 36.5898 96.5945 36.9657C96.5945 37.3105 96.8531 37.6278 97.3842 37.6278C97.9393 37.6243 98.4531 37.3381 98.4531 36.6484Z" fill="#1B1F21"/>
</g>
<defs>
<clipPath id="clip0_20_4582">
<rect width="108.076" height="40" fill="white"/>
</clipPath>
</defs>
</svg>
