<svg width="5" height="5" viewBox="0 0 5 5" fill="none" xmlns="http://www.w3.org/2000/svg">
<path d="M2.406 4.856C1.98133 4.856 1.59133 4.75633 1.236 4.557C0.880667 4.349 0.594667 4.07167 0.378 3.725C0.161333 3.37833 0.053 2.98833 0.053 2.555C0.053 2.15633 0.152667 1.78367 0.352 1.437C0.56 1.08167 0.841667 0.795666 1.197 0.579C1.55233 0.353666 1.95533 0.241 2.406 0.241C2.822 0.241 3.20767 0.340666 3.563 0.54C3.927 0.739333 4.21733 1.01667 4.434 1.372C4.65067 1.71867 4.759 2.113 4.759 2.555C4.759 2.97967 4.65067 3.36533 4.434 3.712C4.226 4.05867 3.94433 4.336 3.589 4.544C3.23367 4.752 2.83933 4.856 2.406 4.856Z" fill="#AEAEAE"/>
</svg>
